<?xml version="1.0" encoding="UTF-8" standalone="no"?>
<svg
        xmlns:osb="http://www.openswatchbook.org/uri/2009/osb"
        xmlns:dc="http://purl.org/dc/elements/1.1/"
        xmlns:cc="http://creativecommons.org/ns#"
        xmlns:rdf="http://www.w3.org/1999/02/22-rdf-syntax-ns#"
        xmlns:xlink="http://www.w3.org/1999/xlink"
        xmlns:sodipodi="http://sodipodi.sourceforge.net/DTD/sodipodi-0.dtd"
        xmlns:inkscape="http://www.inkscape.org/namespaces/inkscape"
        xmlns="http://www.w3.org/2000/svg"
        width="1280"
        height="640"
        viewBox="0 0 338.66668 169.33333"
        version="1.1"
        id="svg8"
        inkscape:version="1.0.2 (e86c870879, 2021-01-15)"
        sodipodi:docname="logo.svg"
        inkscape:export-filename="/home/steffo/Code/mandarin/docs/source/_static/opengraph-light.png"
        inkscape:export-xdpi="96"
        inkscape:export-ydpi="96">
  <defs
          id="defs2">
    <linearGradient
            id="White"
            osb:paint="solid">
      <stop
              style="stop-color:#ffffff;stop-opacity:1;"
              offset="0"
              id="stop1244"/>
    </linearGradient>
    <inkscape:path-effect
            effect="mirror_symmetry"
            start_point="48.997419,55.207333"
            end_point="48.997419,56.308611"
            center_point="48.997419,55.757972"
            id="path-effect1097"
            is_visible="true"
            lpeversion="1"
            mode="free"
            discard_orig_path="false"
            fuse_paths="false"
            oposite_fuse="false"
            split_items="false"/>
    <inkscape:path-effect
            effect="mirror_symmetry"
            start_point="31.072574,68.227607"
            end_point="60.934536,68.227607"
            center_point="46.003767,68.234273"
            id="path-effect1093"
            is_visible="true"
            lpeversion="1"
            mode="Y"
            discard_orig_path="false"
            fuse_paths="false"
            oposite_fuse="false"
            split_items="false"/>
    <inkscape:path-effect
            effect="mirror_symmetry"
            start_point="46.003555,59.571616"
            end_point="46.003555,68.205717"
            center_point="46.003555,63.888666"
            id="path-effect1089"
            is_visible="true"
            lpeversion="1"
            mode="free"
            discard_orig_path="false"
            fuse_paths="false"
            oposite_fuse="false"
            split_items="false"/>
    <inkscape:path-effect
            effect="mirror_symmetry"
            start_point="54.563892,59.571616"
            end_point="54.563892,68.205717"
            center_point="54.563892,63.888666"
            id="path-effect1087"
            is_visible="true"
            lpeversion="1"
            mode="free"
            discard_orig_path="false"
            fuse_paths="false"
            oposite_fuse="false"
            split_items="false"/>
    <inkscape:path-effect
            effect="mirror_symmetry"
            start_point="46.003555,68.21"
            end_point="46.003555,63.888666"
            center_point="46.003555,66.049333"
            id="path-effect1085"
            is_visible="true"
            lpeversion="1"
            mode="free"
            discard_orig_path="false"
            fuse_paths="false"
            oposite_fuse="false"
            split_items="false"/>
    <inkscape:path-effect
            effect="mirror_symmetry"
            start_point="46.003555,59.571616"
            end_point="46.003555,68.205717"
            center_point="46.003555,63.888666"
            id="path-effect1083"
            is_visible="true"
            lpeversion="1"
            mode="X"
            discard_orig_path="false"
            fuse_paths="false"
            oposite_fuse="false"
            split_items="false"/>
    <inkscape:path-effect
            effect="mirror_symmetry"
            start_point="41.278165,46.907877"
            end_point="41.278165,57.702089"
            center_point="41.278165,52.304983"
            id="path-effect1077"
            is_visible="true"
            lpeversion="1"
            mode="free"
            discard_orig_path="false"
            fuse_paths="false"
            oposite_fuse="false"
            split_items="false"/>
    <linearGradient
            id="Leaf"
            osb:paint="solid"
            gradientTransform="matrix(0.29641399,0,0,0.32982134,-17.789374,-19.824318)">
      <stop
              style="stop-color:#5f860a;stop-opacity:1;"
              offset="0"
              id="stop1028"/>
    </linearGradient>
    <linearGradient
            id="Orange"
            osb:paint="solid"
            gradientTransform="translate(7.0721621,-3.4005458)">
      <stop
              style="stop-color:#ff8500;stop-opacity:1;"
              offset="0"
              id="stop1022"/>
    </linearGradient>
    <rect
            x="11.595948"
            y="17.783407"
            width="299.79602"
            height="90.139702"
            id="rect853"/>
    <rect
            x="9.7784042"
            y="20.658472"
            width="315.30389"
            height="80.2117"
            id="rect847"/>
    <rect
            x="20.286188"
            y="18.710098"
            width="281.25851"
            height="90.74115"
            id="rect841"/>
    <rect
            x="38.369522"
            y="36.553104"
            width="217.35339"
            height="58.257107"
            id="rect835"/>
    <linearGradient
            inkscape:collect="always"
            xlink:href="#Orange"
            id="linearGradient1026"
            x1="15.8125"
            y1="44.130775"
            x2="184.6084"
            y2="44.130775"
            gradientUnits="userSpaceOnUse"/>
    <linearGradient
            inkscape:collect="always"
            xlink:href="#Leaf"
            id="linearGradient1032"
            x1="222.82465"
            y1="49.79541"
            x2="229.22424"
            y2="49.79541"
            gradientUnits="userSpaceOnUse"/>
    <linearGradient
            inkscape:collect="always"
            xlink:href="#Orange"
            id="linearGradient1182"
            gradientUnits="userSpaceOnUse"
            x1="15.8125"
            y1="44.130775"
            x2="184.6084"
            y2="44.130775"/>
    <linearGradient
            inkscape:collect="always"
            xlink:href="#Orange"
            id="linearGradient1184"
            gradientUnits="userSpaceOnUse"
            x1="15.8125"
            y1="44.130775"
            x2="184.6084"
            y2="44.130775"/>
    <linearGradient
            inkscape:collect="always"
            xlink:href="#Orange"
            id="linearGradient1186"
            gradientUnits="userSpaceOnUse"
            x1="15.8125"
            y1="44.130775"
            x2="184.6084"
            y2="44.130775"/>
    <linearGradient
            inkscape:collect="always"
            xlink:href="#Orange"
            id="linearGradient1188"
            gradientUnits="userSpaceOnUse"
            x1="15.8125"
            y1="44.130775"
            x2="184.6084"
            y2="44.130775"/>
    <linearGradient
            inkscape:collect="always"
            xlink:href="#Orange"
            id="linearGradient1190"
            gradientUnits="userSpaceOnUse"
            x1="15.8125"
            y1="44.130775"
            x2="184.6084"
            y2="44.130775"/>
    <linearGradient
            inkscape:collect="always"
            xlink:href="#Orange"
            id="linearGradient1192"
            gradientUnits="userSpaceOnUse"
            x1="15.8125"
            y1="44.130775"
            x2="184.6084"
            y2="44.130775"/>
    <linearGradient
            inkscape:collect="always"
            xlink:href="#Orange"
            id="linearGradient1194"
            gradientUnits="userSpaceOnUse"
            x1="15.8125"
            y1="44.130775"
            x2="184.6084"
            y2="44.130775"/>
    <linearGradient
            inkscape:collect="always"
            xlink:href="#Orange"
            id="linearGradient1196"
            gradientUnits="userSpaceOnUse"
            x1="15.8125"
            y1="44.130775"
            x2="184.6084"
            y2="44.130775"/>
    <linearGradient
            inkscape:collect="always"
            xlink:href="#Orange"
            id="linearGradient1198"
            gradientUnits="userSpaceOnUse"
            x1="15.8125"
            y1="44.130775"
            x2="184.6084"
            y2="44.130775"/>
    <rect
            x="38.369522"
            y="36.553104"
            width="217.35339"
            height="58.257107"
            id="rect1236"/>
    <rect
            x="20.286188"
            y="18.710098"
            width="281.25851"
            height="90.74115"
            id="rect1238"/>
    <rect
            x="9.7784042"
            y="20.658472"
            width="315.30389"
            height="80.2117"
            id="rect1240"/>
    <linearGradient
            inkscape:collect="always"
            xlink:href="#White"
            id="linearGradient1248"
            x1="167.04668"
            y1="50.952065"
            x2="184.6084"
            y2="50.952065"
            gradientUnits="userSpaceOnUse"/>
    <linearGradient
            inkscape:collect="always"
            xlink:href="#White"
            id="linearGradient1250"
            x1="154.5451"
            y1="51.187706"
            x2="158.96034"
            y2="51.187706"
            gradientUnits="userSpaceOnUse"/>
    <linearGradient
            inkscape:collect="always"
            xlink:href="#White"
            id="linearGradient1252"
            x1="138.29803"
            y1="50.952065"
            x2="148.98886"
            y2="50.952065"
            gradientUnits="userSpaceOnUse"/>
    <linearGradient
            inkscape:collect="always"
            xlink:href="#White"
            id="linearGradient1254"
            x1="115.47773"
            y1="51.187706"
            x2="131.05507"
            y2="51.187706"
            gradientUnits="userSpaceOnUse"/>
    <linearGradient
            inkscape:collect="always"
            xlink:href="#White"
            id="linearGradient1256"
            x1="91.913277"
            y1="44.887318"
            x2="109.32617"
            y2="44.887318"
            gradientUnits="userSpaceOnUse"/>
    <linearGradient
            inkscape:collect="always"
            xlink:href="#White"
            id="linearGradient1258"
            x1="68.299217"
            y1="50.952065"
            x2="85.860939"
            y2="50.952065"
            gradientUnits="userSpaceOnUse"/>
    <linearGradient
            inkscape:collect="always"
            xlink:href="#White"
            id="linearGradient1260"
            x1="45.478905"
            y1="51.187706"
            x2="61.056248"
            y2="51.187706"
            gradientUnits="userSpaceOnUse"/>
    <linearGradient
            inkscape:collect="always"
            xlink:href="#White"
            id="linearGradient1262"
            x1="15.8125"
            y1="43.84552"
            x2="38.657616"
            y2="43.84552"
            gradientUnits="userSpaceOnUse"/>
    <filter
            inkscape:collect="always"
            style="color-interpolation-filters:sRGB"
            id="filter1272"
            x="-6.7307568e-06"
            width="1.0000135"
            y="-2.7312344e-05"
            height="1.0000546">
      <feGaussianBlur
              inkscape:collect="always"
              stdDeviation="0.00047338506"
              id="feGaussianBlur1274"/>
    </filter>
  </defs>
  <sodipodi:namedview
          id="base"
          pagecolor="#ffffff"
          bordercolor="#666666"
          borderopacity="1.0"
          inkscape:pageopacity="0.0"
          inkscape:pageshadow="2"
          inkscape:zoom="0.70710678"
          inkscape:cx="464.95195"
          inkscape:cy="142.16358"
          inkscape:document-units="px"
          inkscape:current-layer="layer1"
          inkscape:document-rotation="0"
          showgrid="false"
          units="px"
          inkscape:snap-smooth-nodes="true"
          inkscape:snap-intersection-paths="true"
          inkscape:object-paths="true"
          inkscape:snap-midpoints="true"
          inkscape:snap-object-midpoints="true"
          inkscape:snap-center="true"
          inkscape:snap-text-baseline="true"
          inkscape:snap-page="true"
          inkscape:snap-bbox="true"
          inkscape:bbox-paths="true"
          inkscape:bbox-nodes="true"
          inkscape:snap-bbox-edge-midpoints="true"
          inkscape:snap-bbox-midpoints="true"
          inkscape:snap-global="false"
          inkscape:window-width="1920"
          inkscape:window-height="1019"
          inkscape:window-x="1280"
          inkscape:window-y="32"
          inkscape:window-maximized="1"
          showguides="false"/>
  <metadata
          id="metadata5">
    <rdf:RDF>
      <cc:Work
              rdf:about="">
        <dc:format>image/svg+xml</dc:format>
        <dc:type
                rdf:resource="http://purl.org/dc/dcmitype/StillImage"/>
        <dc:title></dc:title>
      </cc:Work>
    </rdf:RDF>
  </metadata>
  <g
          inkscape:label="Light"
          inkscape:groupmode="layer"
          id="layer1"
          style="display:inline">
    <rect
            style="fill:#ffffff;fill-opacity:1;stroke:none;stroke-width:1.09089;stroke-miterlimit:4;stroke-dasharray:none;stroke-opacity:1"
            id="rect1276"
            width="338.66666"
            height="169.33333"
            x="0"
            y="-4.4408921e-16"
            sodipodi:insensitive="true"/>
    <text
            xml:space="preserve"
            id="text833"
            style="font-style:normal;font-weight:normal;font-size:10.5833px;line-height:1.25;font-family:sans-serif;white-space:pre;shape-inside:url(#rect835);fill:#000000;fill-opacity:1;stroke:none;"/>
    <text
            xml:space="preserve"
            id="text839"
            style="font-style:normal;font-weight:normal;font-size:10.5833px;line-height:1.25;font-family:sans-serif;white-space:pre;shape-inside:url(#rect841);fill:#000000;fill-opacity:1;stroke:none;"/>
    <text
            xml:space="preserve"
            id="text845"
            style="font-style:normal;font-variant:normal;font-weight:normal;font-stretch:normal;font-size:10.5833px;line-height:1.25;font-family:Voltaire;-inkscape-font-specification:Voltaire;white-space:pre;shape-inside:url(#rect847);fill:#000000;fill-opacity:1;stroke:none;"><tspan
         x="9.7792969"
         y="30.361463"><tspan
           style="font-style:normal;font-variant:normal;font-weight:normal;font-stretch:normal;font-family:Voltaire;-inkscape-font-specification:Voltaire">
</tspan></tspan></text>
    <g
            id="g1180"
            transform="translate(0,21.166666)">
      <g
              aria-label="Mandarin"
              transform="translate(69.122889,19.369227)"
              id="text851"
              style="font-size:50.8px;line-height:1.25;font-family:Voltaire;-inkscape-font-specification:Voltaire;white-space:pre;shape-inside:url(#rect853);fill:url(#linearGradient1198);fill-opacity:1;stroke:none;stroke-width:1;stroke-miterlimit:4;stroke-dasharray:none;stroke-opacity:1"
              inkscape:export-xdpi="96"
              inkscape:export-ydpi="96">
        <path
                d="M 15.8125,23.332044 27.222656,44.2672 38.657617,23.332044 V 64.358996 H 34.043945 V 45.80509 l 0.124023,-4.985742 -2.629296,5.035352 -4.291211,7.813476 v 0.04961 l -0.02481,-0.0248 v -0.02481 l -4.316016,-7.838281 -2.629296,-5.010547 0.148828,4.936133 V 64.358996 H 15.8125 Z"
                style="font-size:50.8px;line-height:1.25;font-family:Voltaire;-inkscape-font-specification:Voltaire;white-space:pre;shape-inside:url(#rect853);fill:url(#linearGradient1182);fill-opacity:1;stroke:none;stroke-width:1;stroke-miterlimit:4;stroke-dasharray:none;stroke-opacity:1"
                id="path882"/>
        <path
                d="m 45.478905,56.12384 q 0,-4.018359 2.827734,-6.325195 2.852539,-2.306836 8.383985,-2.579688 v -0.520898 q 0,-2.331641 -1.116211,-3.646289 -1.091407,-1.314648 -3.001367,-1.314648 -0.992188,0 -2.058789,0.37207 -1.041797,0.347265 -2.083594,0.942578 l -1.686719,-3.96875 q 1.562695,-0.79375 3.274219,-1.16582 1.711523,-0.372071 3.100586,-0.372071 1.785937,0 3.249414,0.620118 1.463476,0.620117 2.505273,1.785937 1.041797,1.141016 1.612305,2.80293 0.570508,1.661914 0.570508,3.770312 v 18.305859 l -3.249414,-1.5875 q -0.942579,0.744141 -2.108399,1.165821 -1.141015,0.421679 -2.480469,0.421679 -1.686718,0 -3.12539,-0.669726 -1.413867,-0.694532 -2.455664,-1.860352 -1.016992,-1.16582 -1.5875,-2.75332 -0.570508,-1.5875 -0.570508,-3.423047 z m 4.489648,0.07441 q 0,0.917774 0.272852,1.711524 0.272852,0.768945 0.768945,1.364257 0.496094,0.570508 1.190625,0.892969 0.694532,0.322461 1.537891,0.322461 0.868164,0 1.661914,-0.322461 0.79375,-0.322461 1.289844,-0.818555 v -8.160742 q -1.5875,-0.0248 -2.827735,0.322461 -1.240234,0.322461 -2.108398,0.992188 -0.868164,0.644922 -1.339453,1.5875 -0.446485,0.917773 -0.446485,2.108398 z"
                style="font-size:50.8px;line-height:1.25;font-family:Voltaire;-inkscape-font-specification:Voltaire;white-space:pre;shape-inside:url(#rect853);fill:url(#linearGradient1184);fill-opacity:1;stroke:none;stroke-width:1;stroke-miterlimit:4;stroke-dasharray:none;stroke-opacity:1"
                id="path884"/>
        <path
                d="m 68.299217,37.545129 3.720703,2.654102 q 0.545703,-0.545703 1.240235,-1.016992 0.694531,-0.471289 1.463476,-0.818555 0.768945,-0.347265 1.562695,-0.545703 0.79375,-0.198437 1.5875,-0.198437 3.96875,0 5.97793,2.505273 2.00918,2.480469 2.00918,7.168554 V 64.358996 H 81.445701 V 47.342981 q 0,-2.554883 -1.041797,-3.894336 -1.016992,-1.339453 -3.026171,-1.339453 -1.190625,0 -2.43086,0.595312 -1.215429,0.570508 -2.232422,1.810743 v 19.843749 h -4.415234 z"
                style="font-size:50.8px;line-height:1.25;font-family:Voltaire;-inkscape-font-specification:Voltaire;white-space:pre;shape-inside:url(#rect853);fill:url(#linearGradient1186);fill-opacity:1;stroke:none;stroke-width:1;stroke-miterlimit:4;stroke-dasharray:none;stroke-opacity:1"
                id="path886"/>
        <path
                d="m 101.36386,64.830285 q -1.909958,0 -3.646287,-0.79375 -1.711523,-0.79375 -3.001367,-2.455664 -1.289843,-1.661914 -2.058789,-4.241601 -0.74414,-2.579688 -0.74414,-6.151563 0,-3.571875 0.74414,-6.151562 0.768946,-2.579688 2.058789,-4.241602 1.289844,-1.661914 3.001367,-2.455664 1.736329,-0.79375 3.646287,-0.79375 0.96739,0 1.86035,0.248047 0.89297,0.248047 1.68672,0.719336 V 24.84513 h 4.41524 v 40.084374 l -3.00137,-2.133203 q -0.99219,0.992187 -2.25723,1.513086 -1.26504,0.520898 -2.70371,0.520898 z m 0.29766,-4.167187 q 0.94258,0 1.76113,-0.322461 0.81856,-0.322461 1.48828,-0.917774 V 42.977356 q -1.38906,-1.265039 -3.24941,-1.265039 -1.01699,0 -1.959572,0.446484 -0.942578,0.446485 -1.686718,1.537891 -0.719336,1.066601 -1.165821,2.902148 -0.446484,1.810742 -0.446484,4.588867 0,2.778125 0.446484,4.613672 0.446485,1.810742 1.165821,2.902149 0.74414,1.066601 1.686718,1.513085 0.942582,0.446485 1.959572,0.446485 z"
                style="font-size:50.8px;line-height:1.25;font-family:Voltaire;-inkscape-font-specification:Voltaire;white-space:pre;shape-inside:url(#rect853);fill:url(#linearGradient1188);fill-opacity:1;stroke:none;stroke-width:1;stroke-miterlimit:4;stroke-dasharray:none;stroke-opacity:1"
                id="path888"/>
        <path
                d="m 115.47773,56.12384 q 0,-4.018359 2.82773,-6.325195 2.85254,-2.306836 8.38399,-2.579688 v -0.520898 q 0,-2.331641 -1.11621,-3.646289 -1.09141,-1.314648 -3.00137,-1.314648 -0.99219,0 -2.05879,0.37207 -1.0418,0.347265 -2.08359,0.942578 l -1.68672,-3.96875 q 1.56269,-0.79375 3.27422,-1.16582 1.71152,-0.372071 3.10058,-0.372071 1.78594,0 3.24942,0.620118 1.46347,0.620117 2.50527,1.785937 1.0418,1.141016 1.6123,2.80293 0.57051,1.661914 0.57051,3.770312 v 18.305859 l -3.24941,-1.5875 q -0.94258,0.744141 -2.1084,1.165821 -1.14102,0.421679 -2.48047,0.421679 -1.68672,0 -3.12539,-0.669726 -1.41387,-0.694532 -2.45566,-1.860352 -1.017,-1.16582 -1.5875,-2.75332 -0.57051,-1.5875 -0.57051,-3.423047 z m 4.48965,0.07441 q 0,0.917774 0.27285,1.711524 0.27285,0.768945 0.76894,1.364257 0.4961,0.570508 1.19063,0.892969 0.69453,0.322461 1.53789,0.322461 0.86816,0 1.66191,-0.322461 0.79375,-0.322461 1.28985,-0.818555 v -8.160742 q -1.5875,-0.0248 -2.82774,0.322461 -1.24023,0.322461 -2.1084,0.992188 -0.86816,0.644922 -1.33945,1.5875 -0.44648,0.917773 -0.44648,2.108398 z"
                style="font-size:50.8px;line-height:1.25;font-family:Voltaire;-inkscape-font-specification:Voltaire;white-space:pre;shape-inside:url(#rect853);fill:url(#linearGradient1190);fill-opacity:1;stroke:none;stroke-width:1;stroke-miterlimit:4;stroke-dasharray:none;stroke-opacity:1"
                id="path890"/>
        <path
                d="m 138.29804,37.545129 3.74551,2.604493 q 1.53789,-1.190625 3.29902,-1.860352 1.76114,-0.694531 3.64629,-0.694531 v 4.613672 q -1.98437,0 -3.52226,0.421679 -1.51309,0.42168 -2.6293,1.612305 v 20.116601 h -4.53926 z"
                style="font-size:50.8px;line-height:1.25;font-family:Voltaire;-inkscape-font-specification:Voltaire;white-space:pre;shape-inside:url(#rect853);fill:url(#linearGradient1192);fill-opacity:1;stroke:none;stroke-width:1;stroke-miterlimit:4;stroke-dasharray:none;stroke-opacity:1"
                id="path892"/>
        <path
                style="font-size:50.8px;line-height:1.25;font-family:Voltaire;-inkscape-font-specification:Voltaire;white-space:pre;shape-inside:url(#rect853);fill:url(#linearGradient1194);fill-opacity:1;stroke:none;stroke-width:1;stroke-miterlimit:4;stroke-dasharray:none;stroke-opacity:1"
                d="m 154.54511,38.016419 h 4.41524 v 26.342577 h -4.41524 z"
                id="path903"/>
        <path
                d="m 167.04668,37.545129 3.7207,2.654102 q 0.5457,-0.545703 1.24023,-1.016992 0.69454,-0.471289 1.46348,-0.818555 0.76895,-0.347265 1.5627,-0.545703 0.79375,-0.198437 1.5875,-0.198437 3.96875,0 5.97793,2.505273 2.00918,2.480469 2.00918,7.168554 v 17.065625 h -4.41524 V 47.342981 q 0,-2.554883 -1.0418,-3.894336 -1.01699,-1.339453 -3.02617,-1.339453 -1.19062,0 -2.43086,0.595312 -1.21543,0.570508 -2.23242,1.810743 v 19.843749 h -4.41523 z"
                style="font-size:50.8px;line-height:1.25;font-family:Voltaire;-inkscape-font-specification:Voltaire;white-space:pre;shape-inside:url(#rect853);fill:url(#linearGradient1196);fill-opacity:1;stroke:none;stroke-width:1;stroke-miterlimit:4;stroke-dasharray:none;stroke-opacity:1"
                id="path896"/>
      </g>
      <path
              style="font-size:50.8px;line-height:1.25;font-family:Voltaire;-inkscape-font-specification:Voltaire;white-space:pre;shape-inside:url(#rect853);display:inline;fill:url(#linearGradient1032);fill-opacity:1;stroke:none;stroke-width:1;stroke-miterlimit:4;stroke-dasharray:none;stroke-opacity:1"
              d="m 226.02445,52.871191 q -0.71934,0 -1.31465,-0.248046 -0.59531,-0.248047 -1.01699,-0.669727 -0.42168,-0.42168 -0.64493,-0.967383 -0.22324,-0.570508 -0.22324,-1.190625 0,-0.620117 0.22324,-1.16582 0.22325,-0.570508 0.64493,-0.992188 0.42168,-0.421679 1.01699,-0.669726 0.59531,-0.248047 1.31465,-0.248047 0.71933,0 1.31464,0.248047 0.59532,0.248047 1.017,0.669726 0.42168,0.42168 0.64492,0.992188 0.22324,0.545703 0.22324,1.16582 0,0.620117 -0.22324,1.190625 -0.22324,0.545703 -0.64492,0.967383 -0.42168,0.42168 -1.017,0.669727 -0.59531,0.248046 -1.31464,0.248046 z"
              id="path894"
              inkscape:export-xdpi="96"
              inkscape:export-ydpi="96"/>
    </g>
  </g>
  <g
          inkscape:label="Dark"
          inkscape:groupmode="layer"
          id="g1234"
          style="display:none">
    <rect
            style="fill:url(#Orange);fill-opacity:1;stroke:none;stroke-width:1.18175;stroke-miterlimit:4;stroke-dasharray:none;stroke-opacity:1"
            id="rect1242"
            width="338.66666"
            height="169.33333"
            x="-2.8421709e-14"
            y="0"
            sodipodi:insensitive="true"/>
    <text
            xml:space="preserve"
            id="text1202"
            style="font-style:normal;font-weight:normal;font-size:10.5833px;line-height:1.25;font-family:sans-serif;white-space:pre;shape-inside:url(#rect1236);fill:#000000;fill-opacity:1;stroke:none;"/>
    <text
            xml:space="preserve"
            id="text1206"
            style="font-style:normal;font-weight:normal;font-size:10.5833px;line-height:1.25;font-family:sans-serif;white-space:pre;shape-inside:url(#rect1238);fill:#000000;fill-opacity:1;stroke:none;"/>
    <text
            xml:space="preserve"
            id="text1210"
            style="font-style:normal;font-variant:normal;font-weight:normal;font-stretch:normal;font-size:10.5833px;line-height:1.25;font-family:Voltaire;-inkscape-font-specification:Voltaire;white-space:pre;shape-inside:url(#rect1240);fill:#000000;fill-opacity:1;stroke:none;"><tspan
         x="9.7792969"
         y="30.361463"><tspan
           style="font-style:normal;font-variant:normal;font-weight:normal;font-stretch:normal;font-family:Voltaire;-inkscape-font-specification:Voltaire">
</tspan></tspan></text>
    <g
            id="g1232"
            transform="translate(0,21.166666)">
      <g
              aria-label="Mandarin"
              transform="translate(69.122889,19.369227)"
              id="g1228"
              style="font-size:50.8px;line-height:1.25;font-family:Voltaire;-inkscape-font-specification:Voltaire;white-space:pre;shape-inside:url(#rect853);fill:url(#linearGradient1198);fill-opacity:1;stroke:none;stroke-width:1;stroke-miterlimit:4;stroke-dasharray:none;stroke-opacity:1;filter:url(#filter1272)"
              inkscape:export-xdpi="96"
              inkscape:export-ydpi="96">
        <path
                d="M 15.8125,23.332044 27.222656,44.2672 38.657617,23.332044 V 64.358996 H 34.043945 V 45.80509 l 0.124023,-4.985742 -2.629296,5.035352 -4.291211,7.813476 v 0.04961 l -0.02481,-0.0248 v -0.02481 l -4.316016,-7.838281 -2.629296,-5.010547 0.148828,4.936133 V 64.358996 H 15.8125 Z"
                style="font-size:50.8px;line-height:1.25;font-family:Voltaire;-inkscape-font-specification:Voltaire;white-space:pre;shape-inside:url(#rect853);fill:url(#linearGradient1262);fill-opacity:1;stroke:none;stroke-width:1;stroke-miterlimit:4;stroke-dasharray:none;stroke-opacity:1"
                id="path1212"/>
        <path
                d="m 45.478905,56.12384 q 0,-4.018359 2.827734,-6.325195 2.852539,-2.306836 8.383985,-2.579688 v -0.520898 q 0,-2.331641 -1.116211,-3.646289 -1.091407,-1.314648 -3.001367,-1.314648 -0.992188,0 -2.058789,0.37207 -1.041797,0.347265 -2.083594,0.942578 l -1.686719,-3.96875 q 1.562695,-0.79375 3.274219,-1.16582 1.711523,-0.372071 3.100586,-0.372071 1.785937,0 3.249414,0.620118 1.463476,0.620117 2.505273,1.785937 1.041797,1.141016 1.612305,2.80293 0.570508,1.661914 0.570508,3.770312 v 18.305859 l -3.249414,-1.5875 q -0.942579,0.744141 -2.108399,1.165821 -1.141015,0.421679 -2.480469,0.421679 -1.686718,0 -3.12539,-0.669726 -1.413867,-0.694532 -2.455664,-1.860352 -1.016992,-1.16582 -1.5875,-2.75332 -0.570508,-1.5875 -0.570508,-3.423047 z m 4.489648,0.07441 q 0,0.917774 0.272852,1.711524 0.272852,0.768945 0.768945,1.364257 0.496094,0.570508 1.190625,0.892969 0.694532,0.322461 1.537891,0.322461 0.868164,0 1.661914,-0.322461 0.79375,-0.322461 1.289844,-0.818555 v -8.160742 q -1.5875,-0.0248 -2.827735,0.322461 -1.240234,0.322461 -2.108398,0.992188 -0.868164,0.644922 -1.339453,1.5875 -0.446485,0.917773 -0.446485,2.108398 z"
                style="font-size:50.8px;line-height:1.25;font-family:Voltaire;-inkscape-font-specification:Voltaire;white-space:pre;shape-inside:url(#rect853);fill:url(#linearGradient1260);fill-opacity:1;stroke:none;stroke-width:1;stroke-miterlimit:4;stroke-dasharray:none;stroke-opacity:1"
                id="path1214"/>
        <path
                d="m 68.299217,37.545129 3.720703,2.654102 q 0.545703,-0.545703 1.240235,-1.016992 0.694531,-0.471289 1.463476,-0.818555 0.768945,-0.347265 1.562695,-0.545703 0.79375,-0.198437 1.5875,-0.198437 3.96875,0 5.97793,2.505273 2.00918,2.480469 2.00918,7.168554 V 64.358996 H 81.445701 V 47.342981 q 0,-2.554883 -1.041797,-3.894336 -1.016992,-1.339453 -3.026171,-1.339453 -1.190625,0 -2.43086,0.595312 -1.215429,0.570508 -2.232422,1.810743 v 19.843749 h -4.415234 z"
                style="font-size:50.8px;line-height:1.25;font-family:Voltaire;-inkscape-font-specification:Voltaire;white-space:pre;shape-inside:url(#rect853);fill:url(#linearGradient1258);fill-opacity:1;stroke:none;stroke-width:1;stroke-miterlimit:4;stroke-dasharray:none;stroke-opacity:1"
                id="path1216"/>
        <path
                d="m 101.36386,64.830285 q -1.909958,0 -3.646287,-0.79375 -1.711523,-0.79375 -3.001367,-2.455664 -1.289843,-1.661914 -2.058789,-4.241601 -0.74414,-2.579688 -0.74414,-6.151563 0,-3.571875 0.74414,-6.151562 0.768946,-2.579688 2.058789,-4.241602 1.289844,-1.661914 3.001367,-2.455664 1.736329,-0.79375 3.646287,-0.79375 0.96739,0 1.86035,0.248047 0.89297,0.248047 1.68672,0.719336 V 24.84513 h 4.41524 v 40.084374 l -3.00137,-2.133203 q -0.99219,0.992187 -2.25723,1.513086 -1.26504,0.520898 -2.70371,0.520898 z m 0.29766,-4.167187 q 0.94258,0 1.76113,-0.322461 0.81856,-0.322461 1.48828,-0.917774 V 42.977356 q -1.38906,-1.265039 -3.24941,-1.265039 -1.01699,0 -1.959572,0.446484 -0.942578,0.446485 -1.686718,1.537891 -0.719336,1.066601 -1.165821,2.902148 -0.446484,1.810742 -0.446484,4.588867 0,2.778125 0.446484,4.613672 0.446485,1.810742 1.165821,2.902149 0.74414,1.066601 1.686718,1.513085 0.942582,0.446485 1.959572,0.446485 z"
                style="font-size:50.8px;line-height:1.25;font-family:Voltaire;-inkscape-font-specification:Voltaire;white-space:pre;shape-inside:url(#rect853);fill:url(#linearGradient1256);fill-opacity:1;stroke:none;stroke-width:1;stroke-miterlimit:4;stroke-dasharray:none;stroke-opacity:1"
                id="path1218"/>
        <path
                d="m 115.47773,56.12384 q 0,-4.018359 2.82773,-6.325195 2.85254,-2.306836 8.38399,-2.579688 v -0.520898 q 0,-2.331641 -1.11621,-3.646289 -1.09141,-1.314648 -3.00137,-1.314648 -0.99219,0 -2.05879,0.37207 -1.0418,0.347265 -2.08359,0.942578 l -1.68672,-3.96875 q 1.56269,-0.79375 3.27422,-1.16582 1.71152,-0.372071 3.10058,-0.372071 1.78594,0 3.24942,0.620118 1.46347,0.620117 2.50527,1.785937 1.0418,1.141016 1.6123,2.80293 0.57051,1.661914 0.57051,3.770312 v 18.305859 l -3.24941,-1.5875 q -0.94258,0.744141 -2.1084,1.165821 -1.14102,0.421679 -2.48047,0.421679 -1.68672,0 -3.12539,-0.669726 -1.41387,-0.694532 -2.45566,-1.860352 -1.017,-1.16582 -1.5875,-2.75332 -0.57051,-1.5875 -0.57051,-3.423047 z m 4.48965,0.07441 q 0,0.917774 0.27285,1.711524 0.27285,0.768945 0.76894,1.364257 0.4961,0.570508 1.19063,0.892969 0.69453,0.322461 1.53789,0.322461 0.86816,0 1.66191,-0.322461 0.79375,-0.322461 1.28985,-0.818555 v -8.160742 q -1.5875,-0.0248 -2.82774,0.322461 -1.24023,0.322461 -2.1084,0.992188 -0.86816,0.644922 -1.33945,1.5875 -0.44648,0.917773 -0.44648,2.108398 z"
                style="font-size:50.8px;line-height:1.25;font-family:Voltaire;-inkscape-font-specification:Voltaire;white-space:pre;shape-inside:url(#rect853);fill:url(#linearGradient1254);fill-opacity:1;stroke:none;stroke-width:1;stroke-miterlimit:4;stroke-dasharray:none;stroke-opacity:1"
                id="path1220"/>
        <path
                d="m 138.29804,37.545129 3.74551,2.604493 q 1.53789,-1.190625 3.29902,-1.860352 1.76114,-0.694531 3.64629,-0.694531 v 4.613672 q -1.98437,0 -3.52226,0.421679 -1.51309,0.42168 -2.6293,1.612305 v 20.116601 h -4.53926 z"
                style="font-size:50.8px;line-height:1.25;font-family:Voltaire;-inkscape-font-specification:Voltaire;white-space:pre;shape-inside:url(#rect853);fill:url(#linearGradient1252);fill-opacity:1;stroke:none;stroke-width:1;stroke-miterlimit:4;stroke-dasharray:none;stroke-opacity:1"
                id="path1222"/>
        <path
                style="font-size:50.8px;line-height:1.25;font-family:Voltaire;-inkscape-font-specification:Voltaire;white-space:pre;shape-inside:url(#rect853);fill:url(#linearGradient1250);fill-opacity:1;stroke:none;stroke-width:1;stroke-miterlimit:4;stroke-dasharray:none;stroke-opacity:1"
                d="m 154.54511,38.016419 h 4.41524 v 26.342577 h -4.41524 z"
                id="path1224"/>
        <path
                d="m 167.04668,37.545129 3.7207,2.654102 q 0.5457,-0.545703 1.24023,-1.016992 0.69454,-0.471289 1.46348,-0.818555 0.76895,-0.347265 1.5627,-0.545703 0.79375,-0.198437 1.5875,-0.198437 3.96875,0 5.97793,2.505273 2.00918,2.480469 2.00918,7.168554 v 17.065625 h -4.41524 V 47.342981 q 0,-2.554883 -1.0418,-3.894336 -1.01699,-1.339453 -3.02617,-1.339453 -1.19062,0 -2.43086,0.595312 -1.21543,0.570508 -2.23242,1.810743 v 19.843749 h -4.41523 z"
                style="font-size:50.8px;line-height:1.25;font-family:Voltaire;-inkscape-font-specification:Voltaire;white-space:pre;shape-inside:url(#rect853);fill:url(#linearGradient1248);fill-opacity:1;stroke:none;stroke-width:1;stroke-miterlimit:4;stroke-dasharray:none;stroke-opacity:1"
                id="path1226"/>
      </g>
      <path
              style="font-size:50.8px;line-height:1.25;font-family:Voltaire;-inkscape-font-specification:Voltaire;white-space:pre;shape-inside:url(#rect853);display:inline;fill:url(#linearGradient1032);fill-opacity:1;stroke:none;stroke-width:1;stroke-miterlimit:4;stroke-dasharray:none;stroke-opacity:1"
              d="m 226.02445,52.871191 q -0.71934,0 -1.31465,-0.248046 -0.59531,-0.248047 -1.01699,-0.669727 -0.42168,-0.42168 -0.64493,-0.967383 -0.22324,-0.570508 -0.22324,-1.190625 0,-0.620117 0.22324,-1.16582 0.22325,-0.570508 0.64493,-0.992188 0.42168,-0.421679 1.01699,-0.669726 0.59531,-0.248047 1.31465,-0.248047 0.71933,0 1.31464,0.248047 0.59532,0.248047 1.017,0.669726 0.42168,0.42168 0.64492,0.992188 0.22324,0.545703 0.22324,1.16582 0,0.620117 -0.22324,1.190625 -0.22324,0.545703 -0.64492,0.967383 -0.42168,0.42168 -1.017,0.669727 -0.59531,0.248046 -1.31464,0.248046 z"
              id="path1230"
              inkscape:export-xdpi="96"
              inkscape:export-ydpi="96"/>
    </g>
  </g>
</svg>
